<svg width="1167" height="171" fill="none">
  <path d="M15.077 76.89v51.715H.641V4.357h34.023c15.283 0 26.552 2.902 33.806 8.704 7.303 5.851 10.954 14.652 10.954 26.402 0 16.44-8.342 27.538-25.027 33.292l33.805 55.85h-17.12L40.976 76.889H15.077zm0-12.403h19.805c10.205 0 17.677-2.007 22.416-6.02 4.788-4.063 7.182-10.155 7.182-18.279 0-8.22-2.442-14.144-7.327-17.77-4.836-3.627-12.598-5.44-23.287-5.44H15.077v47.508zm148.3 64.118l-2.83-13.273h-.653c-4.642 5.85-9.285 9.816-13.928 11.895-4.595 2.031-10.35 3.046-17.266 3.046-9.237 0-16.468-2.369-21.691-7.108-5.271-4.739-7.907-11.509-7.907-20.309 0-18.81 15.041-28.674 45.123-29.593l15.814-.508v-5.802c0-7.302-1.571-12.694-4.715-16.175-3.143-3.482-8.173-5.222-15.089-5.222-7.739 0-16.516 2.393-26.334 7.18l-4.353-10.807c4.595-2.514 9.624-4.473 15.09-5.875 5.465-1.402 10.954-2.103 16.467-2.103 11.124 0 19.345 2.441 24.665 7.325 5.369 4.932 8.053 12.838 8.053 23.718v63.611h-10.446zm-31.848-9.937c8.754 0 15.646-2.418 20.675-7.253 5.03-4.787 7.545-11.533 7.545-20.237v-8.413l-14.146.652c-11.22.387-19.297 2.128-24.23 5.223-4.981 3.046-7.472 7.833-7.472 14.361 0 5.126 1.548 9.018 4.643 11.678 3.095 2.659 7.424 3.989 12.985 3.989zm190.1 9.937V67.968c0-7.398-1.572-12.96-4.715-16.682-3.192-3.724-8.125-5.585-14.799-5.585-8.802 0-15.307 2.538-19.515 7.615-4.159 5.03-6.239 12.79-6.239 23.283v52.006h-14.146V67.968c0-7.398-1.572-12.96-4.715-16.682-3.192-3.724-8.149-5.585-14.872-5.585-8.85 0-15.331 2.66-19.442 7.978-4.111 5.32-6.166 13.999-6.166 26.04v48.886h-14.146V35.474h11.462l2.321 12.693h.653c2.708-4.497 6.481-8.027 11.317-10.59 4.836-2.563 10.253-3.844 16.25-3.844 14.557 0 24.085 5.27 28.582 15.812h.654c2.805-4.884 6.843-8.728 12.114-11.533 5.272-2.853 11.269-4.279 17.992-4.279 10.543 0 18.426 2.708 23.649 8.123 5.272 5.416 7.907 14.072 7.907 25.967v60.782h-14.146zm28.358-93.131h15.161l20.385 53.093c4.498 12.137 7.279 20.889 8.343 26.257h.653c.774-2.901 2.321-7.834 4.643-14.797 2.37-7.011 10.059-28.529 23.069-64.553h15.162l-40.045 106.041c-3.965 10.493-8.608 17.94-13.928 22.34-5.272 4.401-11.752 6.601-19.442 6.601-4.353 0-8.609-.484-12.768-1.451V157.69c3.095.677 6.577 1.016 10.446 1.016 9.673 0 16.589-5.44 20.748-16.32l5.151-13.273-37.578-93.64zm246.969 93.131h-16.539L512.514 24.304h-.652c.919 12.234 1.378 23.452 1.378 33.655v70.646h-13.348V4.357h16.322l67.757 103.866h.653c-.097-1.547-.363-6.479-.798-14.796-.387-8.269-.508-14.192-.363-17.77v-71.3h13.493v124.248zm46.135 0h-14.146V35.474h14.146v93.131zM627.784 10.233c0-3.24.798-5.61 2.394-7.109 1.548-1.499 3.531-2.248 5.949-2.248 2.273 0 4.232.75 5.876 2.248 1.644 1.548 2.467 3.917 2.467 7.108 0 3.144-.823 5.489-2.467 7.036-1.644 1.596-3.603 2.394-5.876 2.394-2.418 0-4.401-.798-5.949-2.394-1.596-1.547-2.394-3.892-2.394-7.036zm87.699 23.5c4.159 0 7.883.338 11.172 1.015l-1.959 13.129c-3.869-.87-7.279-1.306-10.229-1.306-7.545 0-13.977 3.07-19.297 9.212-5.368 6.092-8.052 13.708-8.052 22.847v49.975h-14.146V35.474h11.679l1.596 17.262h.653c3.482-6.092 7.666-10.783 12.551-14.07 4.836-3.289 10.18-4.933 16.032-4.933zm85.853 94.872l-2.829-13.273h-.653c-4.643 5.85-9.286 9.816-13.929 11.895-4.594 2.031-10.349 3.046-17.265 3.046-9.237 0-16.468-2.369-21.691-7.108-5.272-4.739-7.908-11.509-7.908-20.309 0-18.81 15.042-28.674 45.123-29.593l15.815-.508v-5.802c0-7.302-1.572-12.694-4.716-16.175-3.143-3.482-8.173-5.222-15.088-5.222-7.739 0-16.517 2.393-26.334 7.18l-4.353-10.807c4.595-2.514 9.624-4.473 15.089-5.875 5.465-1.402 10.955-2.103 16.468-2.103 11.123 0 19.345 2.441 24.665 7.325 5.369 4.932 8.053 12.838 8.053 23.718v63.611h-10.447zm-31.847-9.937c8.754 0 15.646-2.418 20.675-7.253 5.03-4.787 7.545-11.533 7.545-20.237v-8.413l-14.146.652c-11.221.387-19.297 2.128-24.23 5.223-4.982 3.046-7.472 7.833-7.472 14.361 0 5.126 1.547 9.018 4.643 11.678 3.095 2.659 7.423 3.989 12.985 3.989zm135.111 9.937V68.331c0-7.592-1.717-13.25-5.15-16.973-3.483-3.772-8.899-5.657-16.25-5.657-9.77 0-16.903 2.635-21.401 7.906-4.547 5.27-6.819 13.974-6.819 26.111v48.887h-14.147V35.474h11.462l2.322 12.693h.653c2.902-4.594 6.964-8.148 12.187-10.662 5.224-2.515 11.027-3.772 17.411-3.772 11.22 0 19.684 2.708 25.391 8.123 5.658 5.416 8.487 14.072 8.487 25.967v60.782H904.6zm31.753 41.851c-5.368 0-9.721-.725-13.058-2.176v-11.46c3.918 1.16 7.763 1.741 11.535 1.741 4.449 0 7.689-1.209 9.721-3.627 2.08-2.418 3.119-6.093 3.119-11.025V35.474h14.146v107.42c0 18.374-8.487 27.562-25.463 27.562zM946.51 10.232c0-3.24.797-5.609 2.393-7.108 1.548-1.499 3.531-2.248 5.949-2.248 2.273 0 4.232.75 5.876 2.248 1.645 1.548 2.467 3.917 2.467 7.108 0 3.144-.822 5.489-2.467 7.036-1.644 1.596-3.603 2.394-5.876 2.394-2.418 0-4.401-.798-5.949-2.394-1.596-1.547-2.393-3.892-2.393-7.036zm102.5 118.373l-2.83-13.273h-.66c-4.64 5.85-9.28 9.816-13.92 11.895-4.6 2.031-10.35 3.046-17.27 3.046-9.24 0-16.467-2.369-21.69-7.108-5.272-4.739-7.908-11.509-7.908-20.309 0-18.81 15.042-28.674 45.128-29.593l15.81-.508v-5.802c0-7.302-1.57-12.694-4.72-16.175-3.14-3.482-8.17-5.222-15.08-5.222-7.74 0-16.52 2.393-26.338 7.18l-4.353-10.807c4.595-2.514 9.621-4.473 15.091-5.875a65.97 65.97 0 0116.47-2.103c11.12 0 19.34 2.441 24.66 7.325 5.37 4.932 8.05 12.838 8.05 23.718v63.611h-10.44zm-31.85-9.937c8.75 0 15.65-2.418 20.68-7.253 5.03-4.787 7.54-11.533 7.54-20.237v-8.413l-14.15.652c-11.22.387-19.29 2.128-24.23 5.223-4.98 3.046-7.468 7.833-7.468 14.361 0 5.126 1.548 9.018 4.638 11.678 3.1 2.659 7.43 3.989 12.99 3.989zm135.11 9.937V68.331c0-7.592-1.72-13.25-5.15-16.973-3.48-3.772-8.9-5.657-16.25-5.657-9.77 0-16.9 2.635-21.4 7.906-4.55 5.27-6.82 13.974-6.82 26.111v48.887h-14.15V35.474h11.47l2.32 12.693h.65c2.9-4.594 6.96-8.148 12.19-10.662 5.22-2.515 11.02-3.772 17.41-3.772 11.22 0 19.68 2.708 25.39 8.123 5.66 5.416 8.49 14.072 8.49 25.967v60.782h-14.15z" fill="#08FDD8"/>
</svg>
