<svg fill="none" viewBox="0 0 286 42">
  <path d="M4.385 18.63v12.647H.855V.894h8.32c3.737 0 6.493.71 8.267 2.128 1.785 1.43 2.678 3.583 2.678 6.457 0 4.02-2.04 6.733-6.12 8.14l8.267 13.658H18.08L10.72 18.63H4.385zm0-3.032h4.843c2.496 0 4.323-.491 5.482-1.472 1.17-.994 1.756-2.483 1.756-4.47 0-2.01-.597-3.459-1.792-4.345-1.182-.887-3.08-1.33-5.694-1.33H4.385v11.617zM40.65 31.277l-.692-3.246h-.16c-1.135 1.43-2.27 2.4-3.406 2.909-1.123.496-2.53.745-4.222.745-2.259 0-4.027-.58-5.304-1.738-1.289-1.16-1.933-2.815-1.933-4.967 0-4.597 3.677-7.012 11.034-7.236l3.867-.125v-1.418c0-1.786-.384-3.104-1.153-3.956-.77-.851-1.999-1.277-3.69-1.277-1.893 0-4.039.586-6.44 1.756l-1.064-2.643a15.841 15.841 0 013.692-1.436 16.163 16.163 0 014.027-.515c2.72 0 4.73.598 6.031 1.792 1.313 1.206 1.97 3.14 1.97 5.8v15.554H40.65zm-7.788-2.43c2.14 0 3.826-.591 5.055-1.774 1.23-1.17 1.846-2.82 1.846-4.948v-2.058l-3.46.16c-2.743.094-4.718.52-5.925 1.277-1.218.745-1.827 1.915-1.827 3.511 0 1.254.379 2.206 1.136 2.856.756.65 1.815.976 3.175.976zm46.486 2.43V16.449c0-1.81-.385-3.17-1.153-4.08-.78-.91-1.987-1.365-3.62-1.365-2.152 0-3.743.62-4.772 1.862-1.017 1.23-1.525 3.13-1.525 5.694v12.717h-3.46V16.449c0-1.81-.384-3.17-1.152-4.08-.781-.91-1.993-1.365-3.637-1.365-2.164 0-3.749.65-4.755 1.951-1.005 1.301-1.507 3.424-1.507 6.368v11.954h-3.46V8.504h2.803l.568 3.104h.16c.662-1.1 1.584-1.963 2.767-2.592 1.183-.63 2.507-.94 3.974-.94 3.56 0 5.89 1.288 6.989 3.866h.16c.686-1.194 1.673-2.134 2.962-2.82 1.29-.697 2.756-1.046 4.4-1.046 2.578 0 4.505.662 5.783 1.986 1.289 1.325 1.933 3.44 1.933 6.35v14.863h-3.458v.002zm6.934-22.774h3.707l4.985 12.984c1.1 2.968 1.78 5.108 2.04 6.42h.16c.19-.709.567-1.915 1.135-3.618.58-1.714 2.46-6.977 5.642-15.785h3.707l-9.792 25.93c-.97 2.566-2.105 4.387-3.406 5.463-1.29 1.076-2.874 1.614-4.754 1.614-1.065 0-2.106-.119-3.122-.355v-2.764c.757.165 1.608.248 2.554.248 2.365 0 4.057-1.33 5.074-3.99l1.259-3.246-9.19-22.899.001-.002zm60.393 22.774h-4.045L126.026 5.772h-.16c.225 2.992.337 5.735.337 8.23v17.275h-3.264V.894h3.991l16.569 25.399h.16l-.195-3.618c-.095-2.023-.125-3.47-.089-4.346V.894h3.299v30.383h.001zm11.281 0h-3.459V8.503h3.459v22.774zM154.213 2.33c0-.792.195-1.372.585-1.738.379-.367.864-.55 1.455-.55a2.06 2.06 0 011.437.55c.402.378.603.958.603 1.738 0 .768-.201 1.342-.603 1.72-.402.39-.881.586-1.437.586-.591 0-1.076-.195-1.455-.586-.39-.378-.585-.951-.585-1.72zm21.446 5.746c1.017 0 1.927.083 2.731.249l-.479 3.21c-.946-.213-1.78-.32-2.501-.32-1.845 0-3.418.751-4.719 2.253-1.313 1.49-1.969 3.353-1.969 5.587v12.22h-3.459V8.503h2.856l.39 4.222h.16c.851-1.49 1.874-2.637 3.069-3.441a6.82 6.82 0 013.92-1.206h.001zm20.994 23.2l-.693-3.246h-.159c-1.136 1.43-2.271 2.4-3.407 2.909-1.123.496-2.53.745-4.221.745-2.259 0-4.027-.58-5.304-1.738-1.29-1.16-1.934-2.815-1.934-4.967 0-4.597 3.678-7.012 11.034-7.236l3.868-.124V16.2c0-1.785-.385-3.103-1.154-3.954-.769-.852-1.998-1.277-3.689-1.277-1.893 0-4.039.585-6.44 1.755l-1.064-2.642a15.844 15.844 0 013.69-1.437 16.146 16.146 0 014.027-.514c2.72 0 4.73.597 6.031 1.791 1.313 1.206 1.969 3.14 1.969 5.8v15.555h-2.554zm-7.788-2.43c2.14 0 3.826-.591 5.056-1.774 1.23-1.17 1.845-2.82 1.845-4.948v-2.058l-3.46.16c-2.743.094-4.718.52-5.925 1.277-1.218.745-1.827 1.915-1.827 3.511 0 1.254.379 2.206 1.136 2.856.757.65 1.815.976 3.175.976zm33.039 2.43v-14.74c0-1.856-.42-3.24-1.26-4.15-.851-.922-2.176-1.383-3.973-1.383-2.389 0-4.134.644-5.233 1.933-1.112 1.289-1.668 3.417-1.668 6.386v11.954h-3.459V8.504h2.802l.568 3.104h.16c.71-1.124 1.703-1.993 2.98-2.608s2.697-.922 4.257-.922c2.744 0 4.814.662 6.209 1.987 1.384 1.324 2.076 3.44 2.076 6.349v14.863h-3.459zm7.765 10.233c-1.313 0-2.377-.177-3.194-.532v-2.802a9.91 9.91 0 002.821.426c1.088 0 1.881-.296 2.377-.887.509-.592.763-1.49.763-2.696V8.503h3.459v26.268c0 4.493-2.075 6.74-6.226 6.74zm2.481-39.18c0-.791.195-1.371.585-1.737.379-.367.863-.55 1.455-.55a2.06 2.06 0 011.437.55c.402.378.603.958.603 1.738 0 .768-.201 1.342-.603 1.72-.402.39-.881.586-1.437.586-.591 0-1.076-.195-1.455-.586-.39-.378-.585-.951-.585-1.72zm25.065 28.947l-.693-3.246h-.161c-1.135 1.43-2.269 2.4-3.404 2.909-1.125.496-2.531.745-4.223.745-2.259 0-4.027-.58-5.306-1.738-1.289-1.16-1.934-2.815-1.934-4.967 0-4.597 3.678-7.012 11.035-7.236l3.864-.125v-1.418c0-1.786-.384-3.104-1.154-3.956-.768-.85-1.998-1.277-3.688-1.277-1.893 0-4.04.586-6.44 1.756l-1.057-2.642a15.829 15.829 0 013.69-1.437 16.129 16.129 0 014.027-.514c2.719 0 4.729.597 6.03 1.791 1.314 1.206 1.969 3.14 1.969 5.8v15.555h-2.555zm-7.789-2.43c2.14 0 3.827-.591 5.057-1.774 1.23-1.17 1.844-2.82 1.844-4.948v-2.058l-3.46.16c-2.744.094-4.72.52-5.925 1.277-1.218.745-1.827 1.915-1.827 3.511 0 1.254.379 2.206 1.135 2.856.758.65 1.816.976 3.179.976h-.003zm33.037 2.43v-14.74c0-1.856-.421-3.24-1.26-4.15-.851-.922-2.176-1.383-3.973-1.383-2.389 0-4.133.644-5.233 1.933-1.113 1.289-1.668 3.417-1.668 6.386v11.954h-3.46V8.504h2.805l.567 3.104h.159c.709-1.124 1.702-1.993 2.983-2.608 1.277-.615 2.695-.922 4.255-.922 2.744 0 4.812.662 6.211 1.987 1.384 1.324 2.079 3.44 2.079 6.349v14.863h-3.465z" fill="#08FDD8"/>
</svg>